# AST/ASF file generated using VICON BodyLanguage
# -----------------------------------------------
:version 1.10
:name VICON
:units
  mass 1.0
  length 0.45
  angle deg
:documentation
   .ast/.asf automatically generated from VICON data using
   VICON BodyBuilder and BodyLanguage model FoxedUp or BRILLIANT.MOD
:root
   order TX TY TZ RX RY RZ
   axis XYZ
   position 0 0 0  
   orientation 0 -0 0 
:bonedata
  begin
     id 1 
     name lhipjoint
     direction 0.500677 -0.737119 0.453848 
     length 2.34727 
     axis 0 -0 0  XYZ
  end
  begin
     id 2 
     name lfemur
     direction 0.34202 -0.939693 0  
     length 7.53653  
     axis 0 -0 20  XYZ
    dof rx ry rz
    limits (-160.0 20.0)
           (-70.0 70.0)
           (-60.0 70.0)
  end
  begin
     id 3 
     name ltibia
     direction 0.34202 -0.939693 0   
     length 6.85572   
     axis 0 -0 20   XYZ
    dof rx
    limits (-10.0 170.0)
  end
  begin
     id 4 
     name lfoot
     direction 0.155313 -0.426718 0.890949   
     length 2.18324   
     axis -90 -1.13533e-015 20   XYZ
    dof rx rz
    limits (-45.0 90.0)
           (-70.0 20.0)
  end
  begin
     id 5 
     name ltoes
     direction 1.53474e-011 -4.21647e-011 1   
     length 1.06748   
     axis -90 -1.13533e-015 20   XYZ
    dof rx
    limits (-90.0 20.0)
  end
  begin
     id 6 
     name rhipjoint
     direction -0.632471 -0.659587 0.406111   
     length 2.62319  
     axis 0 -0 0  XYZ 
  end
  begin
     id 7 
     name rfemur
     direction -0.34202 -0.939693 0   
     length 7.21735   
     axis 0 -0 -20   XYZ
    dof rx ry rz
    limits (-160.0 20.0)
           (-70.0 70.0)
           (-70.0 60.0)
  end
  begin
     id 8 
     name rtibia
     direction -0.34202 -0.939693 0   
     length 7.02558   
     axis 0 -0 -20   XYZ
    dof rx
    limits (-10.0 170.0)
 end
 begin
     id 9 
     name rfoot
     direction -0.16057 -0.441164 0.882945   
     length 2.10014  
     axis -90 1.13533e-015 -20   XYZ
    dof rx rz
    limits (-45.0 90.0)
           (-20.0 70.0)
  end
  begin
     id 10 
     name rtoes
     direction -1.53553e-011 -4.2192e-011 1   
     length 1.02554   
     axis -90 1.13533e-015 -20   XYZ
    dof rx
    limits (-90.0 20.0)
  end
  begin
     id 11 
     name lowerback
     direction 0.0401429 0.998861 -0.0258085   
     length 1.80848   
     axis 0 -0 0   XYZ
    dof rx ry rz
    limits (-20.0 45.0)
           (-30.0 30.0)
           (-30.0 30.0)
  end
  begin
     id 12 
     name upperback
     direction -0.0130978 0.999914 -0.000352645   
     length 1.8116   
     axis 0 -0 0   XYZ
    dof rx ry rz
    limits (-20.0 45.0)
           (-30.0 30.0)
           (-30.0 30.0)
  end
  begin
     id 13 
     name thorax
     direction -0.0300198 0.999453 0.0138573   
     length 1.81778   
     axis 0 -0 0   XYZ
    dof rx ry rz
    limits (-20.0 45.0)
           (-30.0 30.0)
           (-30.0 30.0)
  end
  begin
     id 14 
     name lowerneck
     direction -0.0401726 0.999191 -0.00173647   
     length 2.10594   
     axis 0 -0 0   XYZ
    dof rx ry rz
    limits (-20.0 45.0)
           (-30.0 30.0)
           (-30.0 30.0)
  end
  begin
     id 15 
     name upperneck
     direction 0.0119835 0.998501 0.0534085   
     length 2.07325   
     axis 0 -0 0   XYZ
    dof rx ry rz
    limits (-20.0 45.0)
           (-30.0 30.0)
           (-30.0 30.0)
  end
  begin
     id 16
     name head
     direction 0.00628309 0.999826 0.0175921  
     length 2.15096  
     axis 0 -0 0   XYZ
    dof rx ry rz
    limits (-20.0 45.0)
           (-30.0 30.0)
           (-30.0 30.0)
  end
  begin
     id 17 
     name lclavicle
     direction 0.895501 0.429681 -0.115981  
     length 4.18092  
     axis 0 -0 0   XYZ
    dof ry rz
    limits (-20.0 10.0)
           (0.0 20.0)
  end
  begin
     id 18 
     name lhumerus
     direction 1 -4.48961e-011 -3.38433e-028   
     length 5.77237   
     axis 180 -30 -90   XYZ
    dof rx ry rz
    limits (-60.0 90.0)
           (-90.0 90.0)
           (-90.0 90.0)
  end
  begin
     id 19
     name lradius
     direction 1 -4.4901e-011 1.11983e-026   
     length 2.91878   
     axis 180 -30 -90   XYZ
    dof rx
    limits (-10.0 170.0)
  end
  begin
     id 20
     name lwrist
     direction 1 -4.48934e-011 1.88176e-026   
     length 1.45939   
     axis -1.23311e-014 90 90   XYZ
    dof ry
    limits (-180.0 0.0)
 end
  begin
     id 21 
     name lhand
     direction 1 -4.4895e-011 3.76352e-026   
     length 1.06566   
     axis -2.40147e-014 90 90   XYZ
    dof rx rz
    limits (-90.0 90.0)
           (-45.0 45.0)
  end
  begin
     id 22 
     name lfingers
     direction 1 -4.49005e-011 7.52705e-026   
     length 0.859162   
     axis -4.80295e-014 90 90   XYZ
    dof rx
    limits (0.0 90.0)
  end
  begin
     id 23
     name lthumb
     direction 0.707107 -6.34885e-011 0.707107   
     length 1.23359   
     axis -90 45 -9.86935e-015   XYZ
    dof rx rz
    limits (-45.0 45.0)
           (-45.0 45.0)
  end
  begin
     id 24 
     name rclavicle
     direction -0.91006 0.40451 -0.0903492   
     length 4.23293  
     axis 0 -0 0   XYZ 
    dof ry rz
    limits (-10.0 20.0)
           (-20.0 0.0)
  end
  begin
     id 25 
     name rhumerus
     direction -1 -4.4897e-011 1.7415e-027  
     length 5.49854   
     axis 180 30 90   XYZ
    dof rx ry rz
    limits (-90.0 60.0)
           (-90.0 90.0)
           (-90.0 90.0)
  end
  begin
     id 26 
     name rradius
     direction -1 -4.48963e-011 1.21259e-026   
     length 3.1186   
     axis 180 30 90   XYZ
    dof rx
    limits (-10.0 170.0)
  end
  begin
     id 27 
     name rwrist
     direction -1 -4.48967e-011 1.88176e-026   
     length 1.5593   
     axis -1.23311e-014 -90 -90   XYZ
    dof ry
    limits (-180.0 0.0)
  end
  begin
     id 28
     name rhand
     direction -1 -4.4895e-011 3.76352e-026   
     length 0.71207   
     axis -2.40147e-014 -90 -90   XYZ
    dof rx rz
    limits (-90.0 90.0)
           (-45.0 45.0)
  end
  begin
     id 29
     name rfingers
     direction -1 -4.49005e-011 7.52705e-026   
     length 0.574089   
     axis -4.80295e-014 -90 -90   XYZ
    dof rx
    limits (0.0 90.0)
  end
  begin
     id 30
     name rthumb
     direction -0.707107 -6.34982e-011 0.707107   
     length 0.824281   
     axis -90 -45 9.86935e-015   XYZ
    dof rx rz
    limits (-45.0 45.0)
           (-45.0 45.0)
  end
:hierarchy
  begin
    root lhipjoint rhipjoint lowerback
    lhipjoint lfemur
    lfemur ltibia
    ltibia lfoot
    lfoot ltoes
    rhipjoint rfemur
    rfemur rtibia
    rtibia rfoot
    rfoot rtoes
    lowerback upperback
    upperback thorax
    thorax lowerneck lclavicle rclavicle
    lowerneck upperneck
    upperneck head
    lclavicle lhumerus
    lhumerus lradius
    lradius lwrist
    lwrist lhand lthumb
    lhand lfingers
    rclavicle rhumerus
    rhumerus rradius
    rradius rwrist
    rwrist rhand rthumb
    rhand rfingers
  end

#!OML:ASF C:\ViconDB\ViconDB\414\Spring2016\042216\male.ASF
:FULLY-SPECIFIED
:DEGREES
738
root 35.0917 17.8327 13.1241 907.668 72.8651 1266.07
lowerback 0.791544 -0.335414 8.09752
upperback 0.328274 -0.374564 -0.100407
thorax -0.15785 -0.177884 -4.64427
lowerneck -3.69704 3.67701 -4.58764
upperneck -0.276551 5.08247 3.75991
head 0.317024 2.58066 2.01649
rclavicle 3.95457e-014 -7.15625e-015
rhumerus -7.75431 -1.97253 -83.797
rradius 26.251
rwrist 32.2795
rhand 11.5215 -20.0958
rfingers 7.12502
rthumb 36.568 -46.2707
lclavicle 3.95457e-014 -7.15625e-015
lhumerus -37.1716 25.9883 76.3033
lradius 33.06
lwrist -18.6706
lhand -6.9182 13.3422
lfingers 7.12502
lthumb 18.9495 42.4391
rfemur 2.62796 6.36541 25.0951
rtibia 7.65944
rfoot -17.202 -11.3824
rtoes -8.48654
lfemur -27.0763 -10.0948 -8.86093
ltibia 34.8706
lfoot -25.5099 18.6468
ltoes -4.81172
739
root 35.1626 17.8342 13.1336 909.079 73.59 1267.41
lowerback 0.689328 -0.279933 8.22798
upperback 0.384164 -0.312187 -0.138637
thorax -0.03438 -0.139951 -4.75884
lowerneck -3.69257 3.8659 -4.74055
upperneck -0.434596 5.34472 3.68798
head 0.252969 2.71226 2.01886
rclavicle 2.92835e-014 -1.07344e-014
rhumerus -7.45474 -1.31986 -84.3892
rradius 26.2997
rwrist 32.5447
rhand 11.6492 -19.8193
rfingers 7.12502
rthumb 36.6888 -45.9636
lclavicle 2.92835e-014 -1.07344e-014
lhumerus -37.4024 26.6045 75.9044
lradius 32.7999
lwrist -19.1543
lhand -6.6666 13.4088
lfingers 7.12502
lthumb 19.1914 42.4819
rfemur 3.50978 6.54529 25.4882
rtibia 5.8953
rfoot -16.2611 -11.0721
rtoes -8.7487
lfemur -27.7529 -10.0628 -8.17956
ltibia 34.9206
lfoot -23.2853 18.9
ltoes -9.77687
740
root 35.2343 17.8351 13.1458 910.345 74.3624 1268.6
lowerback 0.632725 -0.202929 8.24568
upperback 0.369061 -0.215881 -0.240698
thorax -0.00473375 -0.0916789 -4.87627
lowerneck -3.46026 4.07764 -4.53423
upperneck -0.578094 5.61171 3.34777
head 0.17186 2.84147 1.86464
rclavicle -2.64011e-014 -2.127e-014
rhumerus -7.33017 -0.209856 -84.9986
rradius 26.3596
rwrist 31.8541
rhand 11.7472 -19.6839
rfingers 7.12502
rthumb 36.7816 -45.8046
lclavicle -2.64011e-014 -2.127e-014
lhumerus -37.8114 26.8903 75.503
lradius 32.7455
lwrist -19.1314
lhand -6.61806 13.5704
lfingers 7.12502
lthumb 19.2381 42.6389
rfemur 5.16564 6.76304 25.8608
rtibia 2.62412
rfoot -14.5121 -10.866
rtoes -8.74534
lfemur -28.3776 -10.0315 -7.55279
ltibia 34.9387
lfoot -22.852 18.7517
ltoes -10.5179
741
root 35.3145 17.8324 13.1733 912.367 75.2104 1270.54
lowerback 0.561463 -0.124238 8.16136
upperback 0.374377 -0.118696 -0.231247
thorax 0.0551302 -0.0407605 -4.81969
lowerneck -3.45606 4.29395 -4.57862
upperneck -0.596264 5.90173 3.17883
head 0.157004 2.98523 1.81861
rclavicle 1.38435e-014 -1.43125e-014
rhumerus -7.16033 0.938617 -85.5984
rradius 26.4165
rwrist 31.6217
rhand 11.8382 -19.7209
rfingers 7.12502
rthumb 36.8677 -45.8194
lclavicle 1.38435e-014 -1.43125e-014
lhumerus -38.1679 27.3823 75.034
lradius 32.5191
lwrist -19.3952
lhand -6.86836 13.4944
lfingers 7.12502
lthumb 18.9974 42.5867
rfemur 6.50431 7.08919 26.4545
rtibia 3.18055e-015
rfoot -13.1843 -10.5981
rtoes -9.14567
lfemur -28.9862 -10.1471 -6.56967
ltibia 34.9523
lfoot -22.8042 18.7101
ltoes -10.0685
742
root 35.3903 17.8272 13.1927 916.107 75.9424 1274.37
lowerback 0.699595 -0.0167001 8.69517
upperback 0.35563 0.0435828 -0.197458
thorax -0.0179216 0.0382611 -5.08622
lowerneck -3.27618 4.44053 -4.51355
upperneck -0.724371 6.08878 3.03293
head 0.0855044 3.07707 1.75337
rclavicle 1.0732e-014 -3.08551e-014
rhumerus -7.061 1.37179 -86.2642
rradius 26.422
rwrist 31.6473
rhand 11.8046 -19.5878
rfingers 7.12502
rthumb 36.8359 -45.6945
lclavicle 1.0732e-014 -3.08551e-014
lhumerus -38.5086 27.6278 74.5677
lradius 32.3216
lwrist -19.3961
lhand -6.84937 13.69
lfingers 7.12502
lthumb 19.0157 42.7805
rfemur 6.64996 7.42425 27.4245
rtibia 9.54166e-015
rfoot -13.1336 -10.0733
rtoes -9.08421
lfemur -29.4614 -10.1708 -5.20024
ltibia 34.9572
lfoot -22.4013 18.2721
ltoes -10.019
743
root 35.462 17.8264 13.1988 918.391 76.7454 1276.58
lowerback 0.777207 0.0767531 8.944
upperback 0.266793 0.180423 -0.316245
thorax -0.1317 0.0983908 -5.3522
lowerneck -3.09655 4.60482 -4.4784
upperneck -0.769192 6.29811 2.78253
head 0.0421934 3.17883 1.66142
rclavicle -2.24068e-014 -1.55052e-014
rhumerus -7.0426 2.24466 -86.8993
rradius 26.4408
rwrist 31.3373
rhand 11.7135 -19.9099
rfingers 7.12502
rthumb 36.7496 -46.0387
lclavicle -2.24068e-014 -1.55052e-014
lhumerus -38.8853 27.5565 74.2742
lradius 32.1827
lwrist -19.1802
lhand -6.90894 13.7379
lfingers 7.12502
lthumb 18.9584 42.8339
rfemur 6.72007 7.75597 27.7987
rtibia 1.74931e-014
rfoot -13.0951 -9.51649
rtoes -9.32999
lfemur -29.9671 -10.2268 -4.40967
ltibia 34.9552
lfoot -22.1137 17.9172
ltoes -9.74111
744
root 35.5342 17.8243 13.2008 920.749 77.5274 1278.79
lowerback 0.809111 0.184943 9.24481
upperback 0.155392 0.33325 -0.49973
thorax -0.238328 0.165193 -5.71637
lowerneck -2.91277 4.74688 -4.509
upperneck -0.818986 6.47998 2.70152
head -0.00941647 3.26822 1.63455
rclavicle -2.25683e-014 5.1684e-015
rhumerus -7.06692 2.88625 -87.544
rradius 26.436
rwrist 31.3199
rhand 11.6889 -19.6226
rfingers 7.12502
rthumb 36.7264 -45.7573
lclavicle -2.25683e-014 5.1684e-015
lhumerus -39.1614 27.228 74.0483
lradius 31.9428
lwrist -18.7813
lhand -7.23464 13.767
lfingers 7.12502
lthumb 18.6451 42.8934
rfemur 6.72149 8.07891 28.0786
rtibia -1.59028e-014
rfoot -13.0596 -8.96175
rtoes -9.25643
lfemur -30.5206 -10.0807 -3.75348
ltibia 34.9385
lfoot -21.6143 17.5527
ltoes -9.89707
